HIERARCHY
ROOT pelvis
{
	OFFSET 0.000000 0.000000 0.720141
	CHANNELS 6 Xposition Yposition Zposition Xrotation Yrotation Zrotation
	JOINT spine
	{
		OFFSET 0.000000 0.000000 0.000000
		CHANNELS 6 Xposition Yposition Zposition Xrotation Yrotation Zrotation
		JOINT spine.001
		{
			OFFSET 0.000000 -0.011068 0.211185
			CHANNELS 3 Xrotation Yrotation Zrotation
			JOINT neck
			{
				OFFSET 0.000000 0.025772 0.209898
				CHANNELS 6 Xposition Yposition Zposition Xrotation Yrotation Zrotation
				JOINT face
				{
					OFFSET 0.000000 0.002778 0.159171
					CHANNELS 6 Xposition Yposition Zposition Xrotation Yrotation Zrotation
					End Site
					{
						OFFSET 0.000000 -0.013781 -0.007013
					}
				}
			}
			JOINT shoulder.L
			{
				OFFSET 0.000000 0.025772 0.209898
				CHANNELS 6 Xposition Yposition Zposition Yrotation Xrotation Zrotation
				JOINT upper_arm.L
				{
					OFFSET 0.140142 0.000000 0.000000
					CHANNELS 6 Xposition Yposition Zposition Xrotation Yrotation Zrotation
					JOINT forearm.L
					{
						OFFSET 0.221691 0.000101 0.000841
						CHANNELS 6 Xposition Yposition Zposition Xrotation Yrotation Zrotation
						End Site
						{
							OFFSET 0.203615 -0.003461 -0.001158
						}
					}
				}
			}
			JOINT shoulder.R
			{
				OFFSET 0.000000 0.025772 0.209898
				CHANNELS 6 Xposition Yposition Zposition Yrotation Xrotation Zrotation
				JOINT upper_arm.R
				{
					OFFSET -0.140142 0.000000 0.000000
					CHANNELS 6 Xposition Yposition Zposition Xrotation Yrotation Zrotation
					JOINT forearm.R
					{
						OFFSET -0.218508 0.000101 0.000841
						CHANNELS 6 Xposition Yposition Zposition Xrotation Yrotation Zrotation
						End Site
						{
							OFFSET -0.190672 -0.003235 -0.001156
						}
					}
				}
			}
		}
	}
	JOINT pelvis.L
	{
		OFFSET 0.000000 0.000000 0.000000
		CHANNELS 6 Xposition Yposition Zposition Yrotation Xrotation Zrotation
		End Site
		{
			OFFSET 0.092302 0.000000 0.000000
		}
	}
	JOINT pelvis.R
	{
		OFFSET 0.000000 0.000000 0.000000
		CHANNELS 6 Xposition Yposition Zposition Yrotation Xrotation Zrotation
		End Site
		{
			OFFSET -0.092302 0.000000 0.000000
		}
	}
	JOINT thigh.L
	{
		OFFSET 0.092302 0.000000 0.000000
		CHANNELS 6 Xposition Yposition Zposition Xrotation Yrotation Zrotation
		JOINT shin.L
		{
			OFFSET 0.018633 0.000000 -0.355539
			CHANNELS 6 Xposition Yposition Zposition Xrotation Yrotation Zrotation
			JOINT foot.L
			{
				OFFSET 0.016000 0.000000 -0.305289
				CHANNELS 3 Xrotation Yrotation Zrotation
				End Site
				{
					OFFSET 0.012202 -0.124413 -0.052243
				}
			}
			JOINT heel.02.L
			{
				OFFSET 0.016000 0.000000 -0.305289
				CHANNELS 3 Xrotation Yrotation Zrotation
				End Site
				{
					OFFSET -0.067342 0.030236 -0.062015
				}
			}
		}
	}
	JOINT thigh.R
	{
		OFFSET -0.092302 0.000000 0.000000
		CHANNELS 6 Xposition Yposition Zposition Xrotation Yrotation Zrotation
		JOINT shin.R
		{
			OFFSET -0.018742 0.000000 -0.357619
			CHANNELS 6 Xposition Yposition Zposition Xrotation Yrotation Zrotation
			JOINT foot.R
			{
				OFFSET -0.016515 0.000000 -0.315127
				CHANNELS 3 Xrotation Yrotation Zrotation
				End Site
				{
					OFFSET -0.011971 -0.122060 -0.051255
				}
			}
			JOINT heel.02.R
			{
				OFFSET -0.016515 0.000000 -0.315127
				CHANNELS 3 Xrotation Yrotation Zrotation
				End Site
				{
					OFFSET 0.068350 0.030236 -0.050117
				}
			}
		}
	}
}
MOTION
Frames: 4
Frame Time: 0.041667
-0.001901 0.012705 0.722675 -0.000000 0.000000 8.585853 -0.000000 0.000000 -0.000000 -9.046771 0.917358 0.121155 9.965768 0.691664 5.642450 -0.000000 0.025772 0.209898 20.654577 -3.637058 5.243458 0.000000 0.002778 0.159170 -2.928275 0.000000 0.000006 -0.000000 0.025772 0.209898 -5.122140 0.028093 0.628063 0.140141 0.000000 -0.000000 16.630204 77.305795 -20.729279 0.221691 0.000101 0.000841 48.045176 34.073772 -109.924279 -0.000000 0.025772 0.209898 -5.068628 0.027510 0.621530 -0.140142 0.000000 -0.000000 33.025105 -67.588069 47.699299 -0.218508 0.000101 0.000841 17.409911 -13.078635 107.300626 0.000000 -0.000000 -0.000000 -0.023421 -0.000000 0.000003 0.000000 -0.000000 -0.000000 -0.023421 -0.000000 -0.000001 0.092302 0.000000 0.000038 -1.497065 4.649316 -0.017725 0.018633 0.000000 -0.355539 4.183440 -5.356010 0.414087 -0.717028 3.778782 -9.061677 -1.158795 -36.393270 -26.900553 -0.092302 0.000000 -0.000038 4.027402 -6.050781 0.001795 -0.018742 -0.000000 -0.357619 -1.780170 7.351069 0.206967 -2.599897 0.804515 -1.222217 -2.454443 28.911378 23.439440 
-0.000679 0.012868 0.722208 -0.000000 0.000000 9.392745 -0.000000 0.000000 -0.000000 -8.913507 1.071546 0.140254 9.967877 0.671177 5.474808 -0.000000 0.025772 0.209898 20.432548 -3.957016 5.026295 0.000000 0.002778 0.159171 -2.827632 0.000000 -0.000001 0.000000 0.025772 0.209898 -5.242601 0.029431 0.642841 0.140142 -0.000000 0.000000 18.188657 77.481154 -22.581529 0.221691 0.000101 0.000841 47.947300 34.010596 -109.908938 0.000000 0.025772 0.209898 -5.189041 0.028833 0.636279 -0.140142 0.000000 0.000000 33.441248 -66.747819 48.940542 -0.218508 0.000101 0.000841 15.945505 -11.977517 107.556000 0.000000 0.000000 0.000000 0.024346 -0.000000 0.000076 0.000000 0.000000 0.000000 0.024309 -0.000000 0.000001 0.092302 0.000000 -0.000039 -1.355811 4.798269 -0.014284 0.018633 0.000000 -0.355539 3.617541 -5.585169 0.365231 -0.093757 4.113807 -9.858697 -1.030630 -36.573870 -27.247196 -0.092302 0.000000 0.000039 3.906104 -6.056174 0.001928 -0.018742 -0.000000 -0.357619 -1.337445 7.572918 0.158065 -2.830514 1.096369 -1.811843 -2.454442 28.660580 23.074993 
0.000578 0.012988 0.721954 -0.000000 0.000000 10.058175 0.000000 -0.000000 0.000000 -8.784202 1.256483 0.163018 9.970981 0.637539 5.199632 -0.000000 0.025772 0.209898 20.200196 -4.341973 4.821331 -0.000000 0.002778 0.159171 -2.682796 -0.000001 -0.000004 -0.000000 0.025772 0.209898 -5.392010 0.031129 0.661045 0.140142 -0.000000 0.000000 19.354086 77.774510 -23.890137 0.221691 0.000101 0.000841 47.456574 33.782317 -109.680680 -0.000000 0.025772 0.209898 -5.338499 0.030515 0.654515 -0.140142 0.000000 0.000000 32.668467 -65.909072 48.558414 -0.218508 0.000101 0.000841 15.302778 -11.474253 107.786853 -0.000000 0.000000 0.000000 0.019314 -0.000000 -0.000025 -0.000000 0.000000 0.000000 0.019314 -0.000000 -0.000001 0.092302 0.000000 -0.000031 -1.254498 4.946318 -0.011588 0.018633 -0.000000 -0.355539 3.193788 -5.761698 0.327319 0.357538 4.378098 -10.504131 -0.934108 -36.724305 -27.526702 -0.092302 0.000000 0.000031 3.717682 -6.061570 0.002009 -0.018742 -0.000000 -0.357619 -0.727642 7.779652 0.087297 -3.157310 1.330865 -2.241690 -2.534916 28.486187 22.704298 
0.001882 0.012998 0.721887 -0.000000 0.000000 10.547633 -0.000000 0.000000 -0.000000 -8.731650 1.420424 0.183629 9.974848 0.594222 4.845578 -0.000000 0.025772 0.209898 20.149415 -4.632358 4.576221 0.000000 0.002778 0.159170 -2.681568 -0.000002 0.000000 -0.000000 0.025772 0.209898 -5.516518 0.032581 0.676254 0.140142 0.000000 0.000000 20.999804 77.921107 -25.829714 0.221691 0.000101 0.000841 46.678739 33.445715 -109.269325 -0.000000 0.025772 0.209898 -5.463058 0.031953 0.669711 -0.140142 0.000000 -0.000000 31.486148 -65.320589 47.381514 -0.218508 0.000101 0.000841 15.234681 -11.345826 108.193666 -0.000000 -0.000000 0.000000 0.004662 0.000000 0.000054 -0.000000 -0.000000 0.000000 0.004625 -0.000000 -0.000002 0.092302 -0.000000 -0.000008 -1.154161 5.082296 -0.009287 0.018633 0.000000 -0.355539 2.848017 -5.866081 0.294447 0.658973 4.555180 -10.944740 -0.855835 -36.844055 -27.750866 -0.092302 0.000000 0.000007 3.541624 -6.028085 0.000875 -0.018742 0.000000 -0.357619 -0.154644 7.891635 0.018703 -3.475434 1.514264 -2.555432 -2.618829 28.388086 22.438886 
